<svg width="2188" height="240" viewBox="0 0 2188 240" fill="none" xmlns="http://www.w3.org/2000/svg">
<rect x="1397" width="40" height="40" fill="black"/>
<rect x="1437" width="40" height="40" fill="black"/>
<rect x="1477" width="40" height="40" fill="black"/>
<rect x="1357" y="40" width="40" height="40" fill="black"/>
<rect x="1357" y="80" width="40" height="40" fill="black"/>
<rect x="1517" y="40" width="40" height="40" fill="black"/>
<rect x="1357" y="120" width="40" height="40" fill="black"/>
<rect y="120" width="40" height="40" fill="black"/>
<rect x="1988" y="120" width="40" height="40" fill="black"/>
<rect x="840" y="120" width="40" height="40" fill="black"/>
<rect x="1597" y="120" width="40" height="40" fill="black"/>
<rect x="960" y="120" width="40" height="40" fill="black"/>
<rect x="1000" y="120" width="40" height="40" fill="black"/>
<rect x="520" y="120" width="40" height="40" fill="black"/>
<rect x="720" y="120" width="40" height="40" fill="black"/>
<rect x="240" y="120" width="40" height="40" fill="black"/>
<rect x="1080" y="120" width="40" height="40" fill="black"/>
<rect x="1948" y="120" width="40" height="40" transform="rotate(-180 1948 120)" fill="black"/>
<rect x="1237" y="120" width="40" height="40" fill="black"/>
<rect x="1791" y="120" width="40" height="40" transform="rotate(-180 1791 120)" fill="black"/>
<rect x="120" y="120" width="40" height="40" fill="black"/>
<rect x="2108" y="120" width="40" height="40" fill="black"/>
<rect x="360" y="200" width="40" height="40" fill="black"/>
<rect width="40" height="40" fill="black"/>
<rect x="1988" width="40" height="40" fill="black"/>
<rect x="840" width="40" height="40" fill="black"/>
<rect x="1597" width="40" height="40" fill="black"/>
<rect x="1000" width="40" height="40" fill="black"/>
<rect x="440" width="40" height="40" fill="black"/>
<rect x="120" width="40" height="40" fill="black"/>
<rect x="2108" width="40" height="40" fill="black"/>
<rect x="360" width="40" height="40" fill="black"/>
<rect x="1200" width="40" height="40" fill="black"/>
<rect x="1828" y="240" width="40" height="40" transform="rotate(-180 1828 240)" fill="black"/>
<rect x="80" width="40" height="40" fill="black"/>
<rect x="2068" width="40" height="40" fill="black"/>
<rect x="600" width="40" height="40" fill="black"/>
<rect x="320" width="40" height="40" fill="black"/>
<rect x="1160" width="40" height="40" fill="black"/>
<rect x="1868" y="240" width="40" height="40" transform="rotate(-180 1868 240)" fill="black"/>
<rect x="40" width="40" height="40" fill="black"/>
<rect x="2028" width="40" height="40" fill="black"/>
<rect x="480" width="40" height="40" fill="black"/>
<rect x="680" width="40" height="40" fill="black"/>
<rect x="680" y="200" width="40" height="40" fill="black"/>
<rect x="560" width="40" height="40" fill="black"/>
<rect x="760" width="40" height="40" fill="black"/>
<rect x="760" y="200" width="40" height="40" fill="black"/>
<rect x="280" width="40" height="40" fill="black"/>
<rect x="1120" width="40" height="40" fill="black"/>
<rect x="1908" y="240" width="40" height="40" transform="rotate(-180 1908 240)" fill="black"/>
<rect x="80" y="120" width="40" height="40" fill="black"/>
<rect x="2068" y="120" width="40" height="40" fill="black"/>
<rect x="320" y="120" width="40" height="40" fill="black"/>
<rect x="1160" y="120" width="40" height="40" fill="black"/>
<rect x="1674" y="200" width="40" height="40" fill="black"/>
<rect x="1197" y="120" width="40" height="40" fill="black"/>
<rect x="320" y="200" width="40" height="40" fill="black"/>
<rect x="40" y="120" width="40" height="40" fill="black"/>
<rect x="2028" y="120" width="40" height="40" fill="black"/>
<rect x="280" y="120" width="40" height="40" fill="black"/>
<rect x="1120" y="120" width="40" height="40" fill="black"/>
<rect x="1634" y="200" width="40" height="40" fill="black"/>
<rect x="280" y="200" width="40" height="40" fill="black"/>
<rect y="80" width="40" height="40" fill="black"/>
<rect x="1988" y="80" width="40" height="40" fill="black"/>
<rect x="840" y="80" width="40" height="40" fill="black"/>
<rect x="1597" y="80" width="40" height="40" fill="black"/>
<rect x="920" y="80" width="40" height="40" fill="black"/>
<rect x="1000" y="80" width="40" height="40" fill="black"/>
<rect x="520" y="80" width="40" height="40" fill="black"/>
<rect x="720" y="80" width="40" height="40" fill="black"/>
<rect x="240" y="80" width="40" height="40" fill="black"/>
<rect x="1080" y="80" width="40" height="40" fill="black"/>
<rect x="1948" y="160" width="40" height="40" transform="rotate(-180 1948 160)" fill="black"/>
<rect x="1237" y="80" width="40" height="40" fill="black"/>
<rect x="1791" y="160" width="40" height="40" transform="rotate(-180 1791 160)" fill="black"/>
<rect x="1357" y="160" width="40" height="40" fill="black"/>
<rect y="160" width="40" height="40" fill="black"/>
<rect x="1988" y="160" width="40" height="40" fill="black"/>
<rect x="840" y="160" width="40" height="40" fill="black"/>
<rect x="1597" y="160" width="40" height="40" fill="black"/>
<rect x="1000" y="160" width="40" height="40" fill="black"/>
<rect x="520" y="160" width="40" height="40" fill="black"/>
<rect x="720" y="160" width="40" height="40" fill="black"/>
<rect x="240" y="160" width="40" height="40" fill="black"/>
<rect x="1080" y="160" width="40" height="40" fill="black"/>
<rect x="1948" y="80" width="40" height="40" transform="rotate(-180 1948 80)" fill="black"/>
<rect x="1237" y="160" width="40" height="40" fill="black"/>
<rect x="1791" y="80" width="40" height="40" transform="rotate(-180 1791 80)" fill="black"/>
<rect x="1080" y="200" width="40" height="40" fill="black"/>
<rect x="1948" y="40" width="40" height="40" transform="rotate(-180 1948 40)" fill="black"/>
<rect x="1237" y="200" width="40" height="40" fill="black"/>
<rect x="1791" y="40" width="40" height="40" transform="rotate(-180 1791 40)" fill="black"/>
<rect x="80" y="160" width="40" height="40" fill="black"/>
<rect y="40" width="40" height="40" fill="black"/>
<rect x="1988" y="40" width="40" height="40" fill="black"/>
<rect x="840" y="40" width="40" height="40" fill="black"/>
<rect x="1597" y="40" width="40" height="40" fill="black"/>
<rect x="880" y="40" width="40" height="40" fill="black"/>
<rect x="1000" y="40" width="40" height="40" fill="black"/>
<rect x="520" y="40" width="40" height="40" fill="black"/>
<rect x="720" y="40" width="40" height="40" fill="black"/>
<rect x="240" y="40" width="40" height="40" fill="black"/>
<rect x="1080" y="40" width="40" height="40" fill="black"/>
<rect x="1948" y="200" width="40" height="40" transform="rotate(-180 1948 200)" fill="black"/>
<rect x="1237" y="40" width="40" height="40" fill="black"/>
<rect x="1791" y="200" width="40" height="40" transform="rotate(-180 1791 200)" fill="black"/>
<rect x="160" y="40" width="40" height="40" fill="black"/>
<rect x="2148" y="40" width="40" height="40" fill="black"/>
<rect x="160" y="80" width="40" height="40" fill="black"/>
<rect x="2148" y="80" width="40" height="40" fill="black"/>
<rect x="1517" y="160" width="40" height="40" fill="black"/>
<rect x="1397" y="200" width="40" height="40" fill="black"/>
<rect x="1437" y="200" width="40" height="40" fill="black"/>
<rect y="200" width="40" height="40" fill="black"/>
<rect x="1988" y="200" width="40" height="40" fill="black"/>
<rect x="840" y="200" width="40" height="40" fill="black"/>
<rect x="1000" y="200" width="40" height="40" fill="black"/>
<rect x="520" y="200" width="40" height="40" fill="black"/>
<rect x="120" y="200" width="40" height="40" fill="black"/>
<rect x="2108" y="200" width="40" height="40" fill="black"/>
<rect x="2068" y="200" width="40" height="40" fill="black"/>
<rect x="2028" y="200" width="40" height="40" fill="black"/>
<rect x="160" y="200" width="40" height="40" fill="black"/>
<rect x="2148" y="160" width="40" height="40" fill="black"/>
<rect x="1477" y="200" width="40" height="40" fill="black"/>
</svg>
